<svg width="14" height="14" viewBox="0 0 14 14" fill="none" xmlns="http://www.w3.org/2000/svg">
<g id="circle-close" clip-path="url(#clip0_22493_25147)">
<path id="Vector" d="M6.92099 7.07896L5.47291 8.54296M6.92099 7.07896L8.54788 8.53075M6.92099 7.07896L5.45643 5.47238M6.92099 7.07896L8.5318 5.45202M6.99996 12.6875C8.59048 12.6875 9.94775 12.0947 11.0212 11.0209M6.99996 12.6875C5.40977 12.6875 4.05258 12.0944 2.97884 11.021M6.99996 12.6875C8.62474 12.6875 9.95362 12.0885 11.0212 11.0209M6.99996 12.6875C5.37518 12.6875 4.04648 12.0886 2.97884 11.021M11.0212 11.0209C12.0947 9.94722 12.6875 8.60073 12.6875 7.01059M11.0212 11.0209C12.0889 9.95332 12.6875 8.63533 12.6875 7.01059M12.6875 7.01059C12.6875 5.42011 12.095 4.05218 11.0212 2.97871M12.6875 7.01059C12.6875 5.38585 12.0888 4.04632 11.0212 2.97871M11.0212 2.97871C9.94742 1.90532 8.6009 1.3125 7.01072 1.3125M11.0212 2.97871C9.95353 1.9111 8.6355 1.3125 7.01072 1.3125M7.01072 1.3125C5.4202 1.3125 4.05225 1.90502 2.97875 2.9788M7.01072 1.3125C5.38594 1.3125 4.04639 1.91119 2.97875 2.9788M2.97875 2.9788C1.90533 4.05252 1.3125 5.399 1.3125 6.98915M2.97875 2.9788C1.91112 4.04641 1.3125 5.36441 1.3125 6.98915M1.3125 6.98915C1.3125 8.57963 1.90503 9.94755 2.97884 11.021M1.3125 6.98915C1.3125 8.61389 1.91121 9.95341 2.97884 11.021" stroke="#909399" stroke-linejoin="round"/>
</g>
<defs>
<clipPath id="clip0_22493_25147">
<rect width="14" height="14" fill="white"/>
</clipPath>
</defs>
</svg>
